<svg width="1000" height="500" viewBox="0 0 1000 500" fill="none" xmlns="http://www.w3.org/2000/svg">
<path d="M618.3 259.22V336H602.9V286.06L582.33 336H570.67L549.99 286.06V336H534.59V259.22H552.08L576.5 316.31L600.92 259.22H618.3ZM671.366 336.77C664.179 336.77 657.579 335.083 651.566 331.71C645.552 328.337 640.786 323.68 637.266 317.74C633.746 311.727 631.986 304.943 631.986 297.39C631.986 289.91 633.746 283.2 637.266 277.26C640.786 271.247 645.552 266.553 651.566 263.18C657.579 259.807 664.179 258.12 671.366 258.12C678.626 258.12 685.226 259.807 691.166 263.18C697.179 266.553 701.909 271.247 705.356 277.26C708.876 283.2 710.636 289.91 710.636 297.39C710.636 304.943 708.876 311.727 705.356 317.74C701.909 323.68 697.179 328.337 691.166 331.71C685.152 335.083 678.552 336.77 671.366 336.77ZM671.366 323.02C675.986 323.02 680.056 321.993 683.576 319.94C687.096 317.813 689.846 314.807 691.826 310.92C693.806 307.033 694.796 302.523 694.796 297.39C694.796 292.257 693.806 287.783 691.826 283.97C689.846 280.083 687.096 277.113 683.576 275.06C680.056 273.007 675.986 271.98 671.366 271.98C666.746 271.98 662.639 273.007 659.046 275.06C655.526 277.113 652.776 280.083 650.796 283.97C648.816 287.783 647.826 292.257 647.826 297.39C647.826 302.523 648.816 307.033 650.796 310.92C652.776 314.807 655.526 317.813 659.046 319.94C662.639 321.993 666.746 323.02 671.366 323.02ZM793.263 259.22L765.103 336H746.403L718.243 259.22H734.743L755.863 320.27L776.873 259.22H793.263ZM820.096 259.22V336H804.696V259.22H820.096ZM852.911 271.65V290.9H878.761V303.11H852.911V323.46H882.061V336H837.511V259.11H882.061V271.65H852.911ZM924.766 336.77C919.413 336.77 914.573 335.853 910.246 334.02C905.993 332.187 902.619 329.547 900.126 326.1C897.633 322.653 896.349 318.583 896.276 313.89H912.776C912.996 317.043 914.096 319.537 916.076 321.37C918.129 323.203 920.916 324.12 924.436 324.12C928.029 324.12 930.853 323.277 932.906 321.59C934.959 319.83 935.986 317.557 935.986 314.77C935.986 312.497 935.289 310.627 933.896 309.16C932.503 307.693 930.743 306.557 928.616 305.75C926.563 304.87 923.703 303.917 920.036 302.89C915.049 301.423 910.979 299.993 907.826 298.6C904.746 297.133 902.069 294.97 899.796 292.11C897.596 289.177 896.496 285.29 896.496 280.45C896.496 275.903 897.633 271.943 899.906 268.57C902.179 265.197 905.369 262.63 909.476 260.87C913.583 259.037 918.276 258.12 923.556 258.12C931.476 258.12 937.893 260.063 942.806 263.95C947.793 267.763 950.543 273.117 951.056 280.01H934.116C933.969 277.37 932.833 275.207 930.706 273.52C928.653 271.76 925.903 270.88 922.456 270.88C919.449 270.88 917.029 271.65 915.196 273.19C913.436 274.73 912.556 276.967 912.556 279.9C912.556 281.953 913.216 283.677 914.536 285.07C915.929 286.39 917.616 287.49 919.596 288.37C921.649 289.177 924.509 290.13 928.176 291.23C933.163 292.697 937.233 294.163 940.386 295.63C943.539 297.097 946.253 299.297 948.526 302.23C950.799 305.163 951.936 309.013 951.936 313.78C951.936 317.887 950.873 321.7 948.746 325.22C946.619 328.74 943.503 331.563 939.396 333.69C935.289 335.743 930.413 336.77 924.766 336.77Z" fill="#F8FAFC"/>
<path d="M56 336V200H113.2C128.267 200 141.333 204.067 152.4 212.2C163.6 220.333 169.2 232.6 169.2 249C169.2 265.267 163.267 277.267 151.4 285C139.533 292.6 126.267 296.4 111.6 296.4H92.4V336H56ZM112 228.6H92.4V267.8H112.4C118 267.8 122.6 266 126.2 262.4C129.8 258.8 131.6 254.333 131.6 249C131.6 243 129.867 238.133 126.4 234.4C122.933 230.533 118.133 228.6 112 228.6ZM377.039 336V200H434.239C449.306 200 462.372 204.067 473.439 212.2C484.639 220.333 490.239 232.6 490.239 249C490.239 265.267 484.306 277.267 472.439 285C460.572 292.6 447.306 296.4 432.639 296.4H413.439V336H377.039ZM433.039 228.6H413.439V267.8H433.439C439.039 267.8 443.639 266 447.239 262.4C450.839 258.8 452.639 254.333 452.639 249C452.639 243 450.906 238.133 447.439 234.4C443.972 230.533 439.172 228.6 433.039 228.6Z" fill="#FF2A54"/>
<path d="M225.528 335.533L208.1 233.193C210.163 224.803 212.881 221.829 221.171 220.333C229.561 220.268 232.47 223.681 235.876 233.193L248.946 335.533H225.528Z" fill="url(#paint0_linear_31_2)"/>
<path d="M266.919 335.533H254.937L241.322 227.835C243.152 221.386 245.665 219.39 253.303 219.262C262.165 219.556 265.348 221.679 266.919 229.978V335.533Z" fill="#FF2A54"/>
<path d="M284.891 335.533H273.999V229.978C276.425 222.614 279.335 220.445 287.07 219.798C295.799 219.845 298.431 222.555 299.596 231.586L284.891 335.533Z" fill="url(#paint1_linear_31_2)"/>
<path d="M313.756 335.533H291.971L306.676 228.371C308.705 221.306 311.519 219.24 320.291 219.798C329.347 220.856 331.388 223.691 331.183 231.586L313.756 335.533Z" fill="#FF2A54"/>
<path d="M218.448 214.44C212.858 215.489 210.205 216.939 205.922 220.333C205.118 218.032 204.953 216.741 205.922 214.44L208.1 211.225C208.05 207.961 208.29 206.32 209.189 203.723C211.878 199.516 214.072 198.305 218.992 197.829C224.723 200.282 228.058 203.855 234.242 214.44C235.087 217.051 235.016 218.032 233.697 218.726C227.841 215.788 224.505 214.817 218.448 214.44Z" fill="#FFC107" stroke="#FFC107" stroke-width="2"/>
<path d="M222.805 185.506C220.403 188.773 220.207 190.643 222.805 194.079L228.251 197.829C231.498 199.136 233.142 199.01 235.876 197.829C239.603 193.981 241.516 192.01 246.768 190.328C246.768 190.328 245.679 189.792 252.214 190.664C258.75 191.536 260.364 183.106 252.214 178.004C252.214 178.004 245.134 180.147 245.134 178.004C245.134 175.861 236.184 167.159 229.885 177.468L222.805 185.506Z" fill="#FFC107" stroke="#FFC107" stroke-width="2"/>
<path d="M239.688 212.296C239.179 216.107 239.544 217.63 241.322 219.262C244.398 215.269 246.744 214.033 252.214 213.904C259.405 215.236 261.552 214.942 257.66 210.153C258.791 205.995 258.456 203.763 256.026 199.973C250.601 194.05 247.863 194.461 243.5 201.58C241.355 201.702 240.482 202.146 239.143 203.187C233.563 205.304 234.415 207.48 239.688 212.296Z" fill="#FFC107" stroke="#FFC107" stroke-width="2"/>
<path d="M263.327 199.666C258.572 195.482 258.781 193.135 263.327 188.95C267.513 186.979 269.989 186.489 274.764 187.343C282.478 180.193 285.435 181.34 288.379 192.165C292.684 192.405 294.056 193.51 295.459 196.452C301.626 201.641 301.305 204.32 295.459 208.775C290.374 207.475 288.3 208.453 285.656 212.526C282.681 216.588 280.327 217.921 274.764 218.42C269.496 216.735 267.014 215.06 263.327 210.919C261.286 208.198 261.289 206.673 263.327 203.953C265.281 202.402 265.237 201.461 263.327 199.666Z" fill="#FFC107" stroke="#FFC107"/>
<path d="M253.848 172.11C260.296 173.202 262.499 175.142 263.651 181.219C267.489 182.266 269.533 182.033 272.91 179.612C275.385 177.417 276.938 176.966 279.99 177.468C283.909 176.881 283.842 175.657 281.623 172.646C279.327 171.089 279.085 170.162 281.623 168.36C284.49 164.974 284.225 163.098 280.534 159.787C278.314 156.484 276.716 155.824 273.454 156.036C268.738 156.102 266.723 157.575 263.651 161.394C258.956 159.965 256.848 160.789 253.848 164.609C248.906 168.025 248.871 169.671 253.848 172.11Z" fill="#FFC107" stroke="#FFC107" stroke-width="2"/>
<path d="M289.248 179.612C289.606 170.192 292.277 168.811 300.685 172.11L306.676 176.933C310.608 177.197 313.756 177.468 313.756 181.219C313.756 184.97 314.171 186.149 309.943 187.113C306.43 188.536 305.32 190.139 304.497 194.079C296.69 190.549 293.257 187.49 289.248 179.612Z" fill="#FFC107"/>
<path d="M306.676 176.933L309.943 187.113M306.676 176.933C310.608 177.197 313.756 177.468 313.756 181.219C313.756 184.97 314.171 186.149 309.943 187.113M306.676 176.933L300.685 172.11C292.277 168.811 289.606 170.192 289.248 179.612C293.257 187.49 296.69 190.549 304.497 194.079C305.32 190.139 306.43 188.536 309.943 187.113" stroke="#FFC107" stroke-width="2"/>
<path d="M309.943 202.116C302.229 205.53 299.22 208.796 295.239 216.047C295.305 218.923 296.888 220.207 302.319 221.941C307.611 216.166 311.051 213.964 319.202 214.44C325.144 214.364 327.944 215.103 331.728 218.19C335.974 218.712 336.682 217.165 335.54 211.76C335.702 208.342 335.068 206.777 332.273 204.795C330.387 203.05 329.092 202.44 326.282 202.116C326.863 198.366 326.237 197.101 323.559 196.222C322.658 192.812 320.843 192.69 317.655 192.477L317.568 192.471C310.262 192.174 309.248 194.901 309.943 202.116Z" fill="#FFC107" stroke="#FFC107"/>
<path d="M214.636 318.387L201.02 239.087C193.811 253.908 192.851 264.27 195.029 279.273C197.208 294.276 203.115 305.182 214.636 318.387Z" fill="#FF2A54"/>
<path d="M326.282 318.387L339.897 239.087C346.208 253.672 347.962 262.673 346.433 280.88C341.7 300.13 336.839 307.683 326.282 318.387Z" fill="#FF2A54"/>
<path d="M214.636 318.387L201.02 239.087C193.811 253.908 192.851 264.27 195.029 279.273C197.208 294.276 203.115 305.182 214.636 318.387Z" stroke="#FF2A54" stroke-width="3"/>
<path d="M326.282 318.387L339.897 239.087C346.208 253.672 347.962 262.673 346.433 280.88C341.7 300.13 336.839 307.683 326.282 318.387Z" stroke="#FF2A54" stroke-width="3"/>
<defs>
<linearGradient id="paint0_linear_31_2" x1="228.523" y1="220.333" x2="228.523" y2="335.533" gradientUnits="userSpaceOnUse">
<stop stop-color="#FFC107"/>
<stop offset="1" stop-color="#FF2A54"/>
</linearGradient>
<linearGradient id="paint1_linear_31_2" x1="286.797" y1="219.798" x2="286.797" y2="335.533" gradientUnits="userSpaceOnUse">
<stop stop-color="#FFC107"/>
<stop offset="1" stop-color="#FF2A54"/>
</linearGradient>
</defs>
</svg>
