<svg width="500" height="500" viewBox="0 0 500 500" fill="none" xmlns="http://www.w3.org/2000/svg">
<path d="M146.7 307.18V370H134.1V329.14L117.27 370H107.73L90.81 329.14V370H78.21V307.18H92.52L112.5 353.89L132.48 307.18H146.7ZM190.117 370.63C184.237 370.63 178.837 369.25 173.917 366.49C168.997 363.73 165.097 359.92 162.217 355.06C159.337 350.14 157.897 344.59 157.897 338.41C157.897 332.29 159.337 326.8 162.217 321.94C165.097 317.02 168.997 313.18 173.917 310.42C178.837 307.66 184.237 306.28 190.117 306.28C196.057 306.28 201.457 307.66 206.317 310.42C211.237 313.18 215.107 317.02 217.927 321.94C220.807 326.8 222.247 332.29 222.247 338.41C222.247 344.59 220.807 350.14 217.927 355.06C215.107 359.92 211.237 363.73 206.317 366.49C201.397 369.25 195.997 370.63 190.117 370.63ZM190.117 359.38C193.897 359.38 197.227 358.54 200.107 356.86C202.987 355.12 205.237 352.66 206.857 349.48C208.477 346.3 209.287 342.61 209.287 338.41C209.287 334.21 208.477 330.55 206.857 327.43C205.237 324.25 202.987 321.82 200.107 320.14C197.227 318.46 193.897 317.62 190.117 317.62C186.337 317.62 182.977 318.46 180.037 320.14C177.157 321.82 174.907 324.25 173.287 327.43C171.667 330.55 170.857 334.21 170.857 338.41C170.857 342.61 171.667 346.3 173.287 349.48C174.907 352.66 177.157 355.12 180.037 356.86C182.977 358.54 186.337 359.38 190.117 359.38ZM289.851 307.18L266.811 370H251.511L228.471 307.18H241.971L259.251 357.13L276.441 307.18H289.851ZM311.806 307.18V370H299.206V307.18H311.806ZM338.655 317.35V333.1H359.805V343.09H338.655V359.74H362.505V370H326.055V307.09H362.505V317.35H338.655ZM397.445 370.63C393.065 370.63 389.105 369.88 385.565 368.38C382.085 366.88 379.325 364.72 377.285 361.9C375.245 359.08 374.195 355.75 374.135 351.91H387.635C387.815 354.49 388.715 356.53 390.335 358.03C392.015 359.53 394.295 360.28 397.175 360.28C400.115 360.28 402.425 359.59 404.105 358.21C405.785 356.77 406.625 354.91 406.625 352.63C406.625 350.77 406.055 349.24 404.915 348.04C403.775 346.84 402.335 345.91 400.595 345.25C398.915 344.53 396.575 343.75 393.575 342.91C389.495 341.71 386.165 340.54 383.585 339.4C381.065 338.2 378.875 336.43 377.015 334.09C375.215 331.69 374.315 328.51 374.315 324.55C374.315 320.83 375.245 317.59 377.105 314.83C378.965 312.07 381.575 309.97 384.935 308.53C388.295 307.03 392.135 306.28 396.455 306.28C402.935 306.28 408.185 307.87 412.205 311.05C416.285 314.17 418.535 318.55 418.955 324.19H405.095C404.975 322.03 404.045 320.26 402.305 318.88C400.625 317.44 398.375 316.72 395.555 316.72C393.095 316.72 391.115 317.35 389.615 318.61C388.175 319.87 387.455 321.7 387.455 324.1C387.455 325.78 387.995 327.19 389.075 328.33C390.215 329.41 391.595 330.31 393.215 331.03C394.895 331.69 397.235 332.47 400.235 333.37C404.315 334.57 407.645 335.77 410.225 336.97C412.805 338.17 415.025 339.97 416.885 342.37C418.745 344.77 419.675 347.92 419.675 351.82C419.675 355.18 418.805 358.3 417.065 361.18C415.325 364.06 412.775 366.37 409.415 368.11C406.055 369.79 402.065 370.63 397.445 370.63Z" fill="#F8FAFC"/>
<path d="M36 288V152H93.2C108.267 152 121.333 156.067 132.4 164.2C143.6 172.333 149.2 184.6 149.2 201C149.2 217.267 143.267 229.267 131.4 237C119.533 244.6 106.267 248.4 91.6 248.4H72.4V288H36ZM92 180.6H72.4V219.8H92.4C98 219.8 102.6 218 106.2 214.4C109.8 210.8 111.6 206.333 111.6 201C111.6 195 109.867 190.133 106.4 186.4C102.933 182.533 98.1333 180.6 92 180.6ZM357.039 288V152H414.239C429.306 152 442.372 156.067 453.439 164.2C464.639 172.333 470.239 184.6 470.239 201C470.239 217.267 464.306 229.267 452.439 237C440.572 244.6 427.306 248.4 412.639 248.4H393.439V288H357.039ZM413.039 180.6H393.439V219.8H413.439C419.039 219.8 423.639 218 427.239 214.4C430.839 210.8 432.639 206.333 432.639 201C432.639 195 430.906 190.133 427.439 186.4C423.972 182.533 419.172 180.6 413.039 180.6Z" fill="#FF2A54"/>
<path d="M205.528 287.533L188.1 185.193C190.163 176.803 192.881 173.829 201.171 172.333C209.561 172.268 212.47 175.681 215.876 185.193L228.946 287.533H205.528Z" fill="url(#paint0_linear_2_2)"/>
<path d="M246.919 287.533H234.937L221.322 179.835C223.152 173.386 225.665 171.39 233.303 171.262C242.165 171.556 245.348 173.679 246.919 181.978V287.533Z" fill="#FF2A54"/>
<path d="M264.891 287.533H253.999V181.978C256.425 174.614 259.335 172.445 267.07 171.798C275.799 171.845 278.431 174.555 279.596 183.586L264.891 287.533Z" fill="url(#paint1_linear_2_2)"/>
<path d="M293.756 287.533H271.971L286.676 180.371C288.705 173.306 291.519 171.24 300.291 171.798C309.347 172.856 311.388 175.691 311.183 183.586L293.756 287.533Z" fill="#FF2A54"/>
<path d="M198.448 166.44C192.858 167.489 190.205 168.939 185.922 172.333C185.118 170.032 184.953 168.741 185.922 166.44L188.1 163.225C188.05 159.961 188.29 158.32 189.189 155.723C191.878 151.516 194.072 150.305 198.992 149.829C204.723 152.282 208.058 155.855 214.242 166.44C215.087 169.051 215.016 170.032 213.697 170.726C207.841 167.788 204.505 166.817 198.448 166.44Z" fill="#FFC107" stroke="#FFC107" stroke-width="2"/>
<path d="M202.805 137.506C200.404 140.773 200.207 142.643 202.805 146.079L208.251 149.829C211.498 151.136 213.142 151.01 215.876 149.829C219.603 145.981 221.516 144.01 226.768 142.328C226.768 142.328 225.679 141.792 232.214 142.664C238.75 143.536 240.364 135.106 232.214 130.004C232.214 130.004 225.134 132.147 225.134 130.004C225.134 127.861 216.184 119.159 209.885 129.468L202.805 137.506Z" fill="#FFC107" stroke="#FFC107" stroke-width="2"/>
<path d="M219.688 164.296C219.179 168.107 219.544 169.63 221.322 171.262C224.398 167.269 226.744 166.033 232.214 165.904C239.405 167.236 241.552 166.942 237.66 162.153C238.791 157.995 238.456 155.763 236.026 151.973C230.601 146.05 227.863 146.461 223.5 153.58C221.355 153.702 220.482 154.146 219.143 155.187C213.563 157.304 214.415 159.48 219.688 164.296Z" fill="#FFC107" stroke="#FFC107" stroke-width="2"/>
<path d="M243.327 151.666C238.572 147.482 238.781 145.135 243.327 140.95C247.513 138.979 249.989 138.489 254.764 139.343C262.478 132.193 265.435 133.34 268.379 144.165C272.684 144.405 274.056 145.51 275.459 148.452C281.626 153.641 281.305 156.32 275.459 160.775C270.374 159.475 268.3 160.453 265.656 164.526C262.681 168.588 260.327 169.921 254.764 170.42C249.496 168.735 247.014 167.06 243.327 162.919C241.286 160.198 241.289 158.673 243.327 155.953C245.281 154.402 245.237 153.461 243.327 151.666Z" fill="#FFC107" stroke="#FFC107"/>
<path d="M233.848 124.11C240.296 125.202 242.499 127.142 243.651 133.219C247.489 134.266 249.533 134.033 252.91 131.612C255.385 129.417 256.938 128.966 259.99 129.468C263.909 128.881 263.842 127.657 261.623 124.646C259.327 123.089 259.085 122.162 261.623 120.36C264.49 116.974 264.225 115.098 260.534 111.787C258.314 108.484 256.716 107.824 253.454 108.036C248.738 108.102 246.723 109.575 243.651 113.394C238.956 111.965 236.848 112.789 233.848 116.609C228.907 120.025 228.871 121.671 233.848 124.11Z" fill="#FFC107" stroke="#FFC107" stroke-width="2"/>
<path d="M269.248 131.612C269.606 122.192 272.277 120.811 280.685 124.11L286.676 128.933C290.608 129.197 293.756 129.468 293.756 133.219C293.756 136.97 294.171 138.149 289.943 139.113C286.43 140.536 285.321 142.139 284.497 146.079C276.69 142.549 273.257 139.49 269.248 131.612Z" fill="#FFC107"/>
<path d="M286.676 128.933L289.943 139.113M286.676 128.933C290.608 129.197 293.756 129.468 293.756 133.219C293.756 136.97 294.171 138.149 289.943 139.113M286.676 128.933L280.685 124.11C272.277 120.811 269.606 122.192 269.248 131.612C273.257 139.49 276.69 142.549 284.497 146.079C285.321 142.139 286.43 140.536 289.943 139.113" stroke="#FFC107" stroke-width="2"/>
<path d="M289.943 154.116C282.229 157.53 279.22 160.796 275.239 168.047C275.305 170.923 276.888 172.207 282.319 173.941C287.611 168.166 291.051 165.964 299.202 166.44C305.144 166.364 307.944 167.103 311.728 170.19C315.974 170.712 316.682 169.165 315.54 163.76C315.702 160.342 315.068 158.777 312.273 156.795C310.387 155.05 309.092 154.44 306.282 154.116C306.863 150.366 306.237 149.101 303.559 148.222C302.658 144.812 300.843 144.69 297.655 144.477L297.568 144.471C290.262 144.174 289.248 146.901 289.943 154.116Z" fill="#FFC107" stroke="#FFC107"/>
<path d="M194.636 270.387L181.02 191.087C173.811 205.908 172.851 216.27 175.029 231.273C177.208 246.276 183.115 257.182 194.636 270.387Z" fill="#FF2A54"/>
<path d="M306.282 270.387L319.897 191.087C326.208 205.672 327.962 214.673 326.433 232.88C321.7 252.13 316.839 259.683 306.282 270.387Z" fill="#FF2A54"/>
<path d="M194.636 270.387L181.02 191.087C173.811 205.908 172.851 216.27 175.029 231.273C177.208 246.276 183.115 257.182 194.636 270.387Z" stroke="#FF2A54" stroke-width="3"/>
<path d="M306.282 270.387L319.897 191.087C326.208 205.672 327.962 214.673 326.433 232.88C321.7 252.13 316.839 259.683 306.282 270.387Z" stroke="#FF2A54" stroke-width="3"/>
<defs>
<linearGradient id="paint0_linear_2_2" x1="208.523" y1="172.333" x2="208.523" y2="287.533" gradientUnits="userSpaceOnUse">
<stop stop-color="#FFC107"/>
<stop offset="1" stop-color="#FF2A54"/>
</linearGradient>
<linearGradient id="paint1_linear_2_2" x1="266.797" y1="171.798" x2="266.797" y2="287.533" gradientUnits="userSpaceOnUse">
<stop stop-color="#FFC107"/>
<stop offset="1" stop-color="#FF2A54"/>
</linearGradient>
</defs>
</svg>
